<svg xmlns="http://www.w3.org/2000/svg" viewBox="0 0 512 512" role="img" aria-label="Corretaje Guzmán">
  <defs>
    <linearGradient id="g" x1="70" y1="44" x2="444" y2="468" gradientUnits="userSpaceOnUse">
      <stop offset="0" stop-color="#2b193f"/>
      <stop offset="0.56" stop-color="#7c3aed"/>
      <stop offset="1" stop-color="#4c1d95"/>
    </linearGradient>
    <filter id="s" x="-20%" y="-20%" width="140%" height="140%">
      <feDropShadow dx="0" dy="18" stdDeviation="20" flood-color="#160d28" flood-opacity="0.3"/>
    </filter>
  </defs>
  <rect width="512" height="512" rx="112" fill="url(#g)"/>
  <circle cx="256" cy="256" r="178" fill="none" stroke="#ffffff" stroke-opacity="0.13" stroke-width="34"/>
  <g filter="url(#s)">
    <path d="M150 286V178h55v83c0 34 17 54 49 54 31 0 52-22 52-57v-80h56v183h-52l-3-27c-14 20-37 33-68 33-54 0-89-33-89-81Z" fill="#fff"/>
    <path d="M357 196h-54v-45h54v45Z" fill="#fff" opacity="0.94"/>
    <path d="M150 397h212" stroke="#fff" stroke-width="18" stroke-linecap="round" opacity="0.88"/>
    <path d="M168 130h176" stroke="#fff" stroke-width="18" stroke-linecap="round" opacity="0.88"/>
  </g>
  <text x="256" y="452" text-anchor="middle" font-family="Arial, Helvetica, sans-serif" font-size="38" font-weight="800" letter-spacing="8" fill="#ffffff" opacity="0.92">GUZMAN</text>
</svg>
